<svg width="120" height="120" viewBox="0 0 120 120" fill="none" xmlns="http://www.w3.org/2000/svg">
<rect width="120" height="120" fill="white"/>
<path d="M99.3333 54.6667H97V65.3333H99.3333L112 72V49L99.3333 54.6667Z" stroke="black" stroke-width="2"/>
<path d="M112 57C113 57.2 115 58.08 115 60C115 61.92 113 62.8 112 63" stroke="black" stroke-width="2"/>
<path d="M14 76V64H25V76" stroke="black" stroke-width="2"/>
<path d="M5 59L20.1685 50L35 59" stroke="black" stroke-width="2"/>
<path d="M5 76H35" stroke="black" stroke-width="2"/>
<path d="M32 58V76" stroke="black" stroke-width="2"/>
<path d="M8 58V76" stroke="black" stroke-width="2"/>
<path d="M73 10.2L60 5L48 10.2V26.125L60 31L73 26.125V10.2ZM48 10.2L54 12.8M73 10.2L66.5 12.8M66.5 12.8L60 15.4L54 12.8M66.5 12.8V17.675M54 12.8V17.675" stroke="black" stroke-width="2"/>
<path d="M60 16V31" stroke="black" stroke-width="2"/>
<path d="M88 60.5C88 57.4624 90.4624 55 93.5 55H97V66H93.5C90.4624 66 88 63.5376 88 60.5V60.5Z" stroke="black" stroke-width="2"/>
<path d="M50.9512 105.463L56.878 111.39M56.878 111.39L74 94.5976L68.0732 89L50.9512 105.463L47 116L56.878 111.39Z" stroke="black" stroke-width="2"/>
<path d="M64 93L70 99" stroke="black" stroke-width="2"/>
<path d="M80.0513 100.684C79.8767 101.208 80.1598 101.774 80.6838 101.949L89.2219 104.795C89.7459 104.969 90.3122 104.686 90.4868 104.162C90.6615 103.638 90.3783 103.072 89.8544 102.897L82.2649 100.368L84.7947 92.7781C84.9694 92.2541 84.6862 91.6878 84.1623 91.5132C83.6383 91.3385 83.072 91.6217 82.8974 92.1456L80.0513 100.684ZM100 80L99.0035 79.917C98.7054 83.4939 94.7147 93.0246 80.5528 100.106L81 101L81.4472 101.894C96.0853 94.5754 100.628 84.5061 100.997 80.083L100 80Z" fill="black"/>
<path d="M22.365 82.069C21.8508 81.8674 21.2705 82.1208 21.069 82.635L17.7843 91.0142C17.5828 91.5284 17.8362 92.1087 18.3504 92.3102C18.8646 92.5118 19.4448 92.2584 19.6464 91.7442L22.5661 84.296L30.0142 87.2157C30.5284 87.4172 31.1087 87.1638 31.3102 86.6496C31.5118 86.1354 31.2584 85.5552 30.7442 85.3536L22.365 82.069ZM41 102L41.3485 101.063C37.2849 99.5519 27.7642 93.6986 22.9164 82.5997L22 83L21.0836 83.4003C26.1945 95.1014 36.1978 101.281 40.6515 102.937L41 102Z" fill="black"/>
<path d="M40.9303 24.3668C41.1329 23.853 40.8806 23.2723 40.3668 23.0697L31.9941 19.7685C31.4803 19.5659 30.8996 19.8182 30.697 20.332C30.4944 20.8458 30.7467 21.4265 31.2605 21.6291L38.7029 24.5635L35.7685 32.0059C35.5659 32.5197 35.8182 33.1004 36.332 33.303C36.8458 33.5056 37.4265 33.2533 37.6291 32.7395L40.9303 24.3668ZM20 44L20.9487 44.3161C22.3417 40.1355 28.2218 30.2071 40.3985 24.9172L40 24L39.6015 23.0828C26.829 28.6316 20.5962 39.0473 19.0513 43.6839L20 44Z" fill="black"/>
<path d="M99.6415 43.9335C100.157 44.1315 100.736 43.8741 100.934 43.3585L104.16 34.9568C104.358 34.4412 104.101 33.8628 103.585 33.6648C103.07 33.4668 102.491 33.7242 102.293 34.2398L99.425 41.708L91.9568 38.8399C91.4412 38.6419 90.8628 38.8993 90.6648 39.4149C90.4668 39.9304 90.7242 40.5089 91.2398 40.7069L99.6415 43.9335ZM81 24L80.7195 24.9598C84.4895 26.0617 93.7074 31.3201 99.0864 43.4066L100 43L100.914 42.5934C95.2857 29.9477 85.591 24.2999 81.2805 23.0402L81 24Z" fill="black"/>
</svg>
