<svg width="120" height="120" viewBox="0 0 120 120" fill="none" xmlns="http://www.w3.org/2000/svg">
<rect width="120" height="120" fill="white"/>
<path d="M27 94L47 74" stroke="black" stroke-width="2"/>
<path d="M72 48L93 28" stroke="black" stroke-width="2"/>
<path d="M73 73L93 93" stroke="black" stroke-width="2"/>
<path d="M27 28L47 49" stroke="black" stroke-width="2"/>
<circle cx="60" cy="61" r="18" stroke="black" stroke-width="2"/>
<circle cx="102.5" cy="102.5" r="12.5" stroke="black" stroke-width="2"/>
<circle cx="17.5" cy="102.5" r="12.5" stroke="black" stroke-width="2"/>
<circle cx="17.5" cy="18.5" r="12.5" stroke="black" stroke-width="2"/>
<circle cx="102.5" cy="18.5" r="12.5" stroke="black" stroke-width="2"/>
<path d="M85 102C77.6297 106.476 69.1979 108.892 60.5809 108.996C51.9639 109.101 43.4763 106.89 36 102.594" stroke="black" stroke-width="2"/>
<path d="M36 17C43.3703 12.5239 51.8021 10.1081 60.4191 10.0035C69.0361 9.89901 77.5237 12.1096 85 16.4056" stroke="black" stroke-width="2"/>
<path d="M18 84C13.5239 76.6297 11.1081 68.1979 11.0035 59.5809C10.899 50.9639 13.1096 42.4763 17.4056 35" stroke="black" stroke-width="2"/>
<path d="M103 35C107.476 42.3703 109.892 50.8021 109.996 59.4191C110.101 68.0361 107.89 76.5237 103.594 84" stroke="black" stroke-width="2"/>
</svg>
