<svg width="120" height="120" viewBox="0 0 120 120" fill="none" xmlns="http://www.w3.org/2000/svg">
<rect width="120" height="120" fill="white"/>
<rect x="62" y="83" width="12" height="21" stroke="black" stroke-width="2"/>
<rect x="80" y="71" width="14" height="33" stroke="black" stroke-width="2"/>
<rect x="100" y="55" width="12" height="49" stroke="black" stroke-width="2"/>
<path d="M86.4189 13L94.4893 32.04H4.53809L12.9932 13H86.4189Z" stroke="black" stroke-width="2"/>
<path d="M4 33V45.8043C4.13953 47.8696 6.17674 52 13.2093 52C20.2419 52 22 47.8696 22 45.8043V33" stroke="black" stroke-width="2"/>
<path d="M22 33V45.8043C22.1395 47.8696 24.1767 52 31.2093 52C38.2419 52 40 47.8696 40 45.8043V33" stroke="black" stroke-width="2"/>
<path d="M40 33V45.8043C40.1473 47.8696 42.2977 52 49.7209 52C57.1442 52 59 47.8696 59 45.8043V33" stroke="black" stroke-width="2"/>
<path d="M59 33V45.8043C59.1395 47.8696 61.1767 52 68.2093 52C75.2419 52 77 47.8696 77 45.8043V33" stroke="black" stroke-width="2"/>
<path d="M77 33V45.8043C77.1395 47.8696 79.1767 52 86.2093 52C93.2419 52 95 47.8696 95 45.8043V33" stroke="black" stroke-width="2"/>
<path d="M10 52V108" stroke="black" stroke-width="2"/>
<path d="M21 74C21 68.4772 25.4772 64 31 64H33C38.5228 64 43 68.4772 43 74V109H21V74Z" stroke="black" stroke-width="2"/>
<path d="M88 52V70" stroke="black" stroke-width="2"/>
<path d="M5 109H118" stroke="black" stroke-width="2"/>
</svg>
